<?xml version='1.0' encoding='utf-8'?>
<svg xmlns="http://www.w3.org/2000/svg" width="748" height="91" viewBox="0 0 748 91" preserveAspectRatio="xMidYMid meet">
  <g transform="translate(-400 -443)"><g transform="scale(0.125)">
  <path d="M 8135 4234 L 8137 4240 L 8315 4239 L 8319 4236 L 8321 4228 L 8329 4216 L 8333 4213 L 8345 4191 L 8350 4186 L 8351 4180 L 8357 4173 L 8360 4163 L 8365 4157 L 8368 4148 L 8374 4141 L 8377 4133 L 8383 4125 L 8385 4115 L 8394 4107 L 8406 4109 L 8496 4107 L 8514 4105 L 8764 4106 L 8908 4104 L 8919 4115 L 8922 4126 L 8926 4129 L 8930 4140 L 8935 4145 L 8945 4165 L 8951 4172 L 8954 4181 L 8966 4198 L 8977 4220 L 8982 4225 L 8985 4236 L 8988 4239 L 9166 4240 L 9172 4237 L 9171 4233 L 9161 4221 L 9151 4202 L 9137 4182 L 9134 4174 L 9120 4153 L 9118 4147 L 9112 4140 L 9109 4132 L 9104 4127 L 9101 4119 L 9096 4114 L 9095 4109 L 9089 4102 L 9085 4092 L 9064 4061 L 9061 4053 L 9057 4049 L 9046 4027 L 9040 4020 L 9037 4012 L 9016 3981 L 8997 3945 L 8993 3941 L 8990 3932 L 8984 3925 L 8982 3918 L 8969 3900 L 8965 3890 L 8952 3873 L 8950 3867 L 8945 3862 L 8941 3852 L 8928 3834 L 8926 3827 L 8920 3821 L 8902 3786 L 8897 3781 L 8893 3771 L 8881 3754 L 8870 3732 L 8865 3726 L 8853 3701 L 8840 3682 L 8837 3674 L 8825 3658 L 8822 3650 L 8816 3642 L 8814 3635 L 8808 3628 L 8798 3609 L 8793 3604 L 8790 3595 L 8784 3589 L 8775 3569 L 8767 3564 L 8546 3562 L 8535 3563 L 8529 3568 L 8527 3577 L 8522 3583 L 8519 3591 L 8514 3596 L 8511 3604 L 8505 3610 L 8501 3620 L 8490 3635 L 8486 3645 L 8481 3650 L 8478 3659 L 8466 3676 L 8455 3697 L 8449 3704 L 8439 3725 L 8425 3745 L 8406 3781 L 8386 3811 L 8383 3819 L 8378 3824 L 8366 3848 L 8361 3854 L 8359 3861 L 8353 3867 L 8351 3875 L 8345 3881 L 8343 3888 L 8337 3895 L 8326 3917 L 8321 3922 L 8311 3941 L 8306 3946 L 8302 3955 L 8297 3961 L 8295 3968 L 8281 3990 L 8279 3997 L 8265 4018 L 8254 4039 L 8250 4043 L 8246 4053 L 8241 4058 L 8231 4078 L 8226 4083 L 8223 4092 L 8216 4101 L 8215 4106 L 8209 4113 L 8207 4119 L 8185 4152 L 8182 4161 L 8161 4193 L 8151 4213 L 8146 4218 L 8143 4227 Z M 8459 3986 L 8470 3973 L 8480 3954 L 8486 3948 L 8488 3941 L 8501 3923 L 8504 3915 L 8511 3907 L 8520 3890 L 8526 3884 L 8529 3876 L 8541 3859 L 8561 3820 L 8573 3803 L 8593 3768 L 8597 3764 L 8601 3754 L 8607 3746 L 8608 3741 L 8614 3734 L 8624 3714 L 8629 3709 L 8632 3700 L 8649 3680 L 8653 3680 L 8663 3689 L 8665 3694 L 8670 3699 L 8673 3709 L 8678 3714 L 8681 3722 L 8710 3766 L 8738 3816 L 8751 3835 L 8753 3842 L 8766 3860 L 8769 3868 L 8775 3874 L 8777 3880 L 8783 3887 L 8784 3892 L 8790 3898 L 8793 3907 L 8798 3912 L 8809 3934 L 8814 3939 L 8818 3949 L 8822 3952 L 8830 3964 L 8832 3971 L 8840 3981 L 8842 3988 L 8837 3992 L 8797 3993 L 8464 3992 L 8459 3989 Z" fill="#000000" fill-rule="evenodd" />
  <path d="M 7167 3566 L 7165 3674 L 7166 4215 L 7164 4236 L 7167 4239 L 7668 4240 L 7728 4237 L 7750 4232 L 7778 4230 L 7794 4225 L 7823 4221 L 7841 4215 L 7852 4214 L 7861 4209 L 7876 4206 L 7898 4198 L 7906 4193 L 7919 4190 L 7953 4174 L 7977 4158 L 8013 4128 L 8038 4100 L 8048 4082 L 8053 4077 L 8056 4069 L 8062 4062 L 8073 4038 L 8077 4034 L 8081 4019 L 8086 4011 L 8087 4001 L 8095 3980 L 8096 3964 L 8100 3950 L 8102 3930 L 8101 3856 L 8098 3845 L 8094 3812 L 8088 3796 L 8086 3782 L 8080 3773 L 8078 3763 L 8073 3756 L 8070 3747 L 8065 3742 L 8061 3733 L 8056 3727 L 8054 3720 L 8038 3698 L 7997 3658 L 7965 3634 L 7955 3630 L 7949 3625 L 7941 3623 L 7933 3617 L 7923 3614 L 7917 3610 L 7905 3607 L 7897 3602 L 7877 3598 L 7866 3593 L 7798 3578 L 7771 3576 L 7733 3569 L 7665 3566 L 7650 3563 L 7496 3564 L 7389 3562 L 7173 3562 Z M 7328 3688 L 7330 3686 L 7375 3685 L 7665 3686 L 7676 3688 L 7694 3688 L 7722 3694 L 7748 3696 L 7767 3702 L 7783 3704 L 7808 3712 L 7842 3728 L 7875 3751 L 7894 3771 L 7898 3780 L 7904 3786 L 7905 3791 L 7912 3802 L 7913 3808 L 7919 3816 L 7922 3835 L 7927 3844 L 7928 3871 L 7931 3886 L 7931 3915 L 7928 3932 L 7927 3953 L 7921 3966 L 7918 3985 L 7914 3990 L 7911 4000 L 7905 4008 L 7903 4015 L 7887 4037 L 7877 4047 L 7858 4062 L 7851 4065 L 7846 4070 L 7838 4073 L 7831 4079 L 7822 4081 L 7814 4087 L 7803 4089 L 7795 4095 L 7782 4097 L 7773 4103 L 7754 4105 L 7736 4111 L 7703 4113 L 7669 4119 L 7631 4120 L 7330 4120 L 7327 4117 Z" fill="#000000" fill-rule="evenodd" />
  <path d="M 6064 3566 L 6062 3573 L 6062 3965 L 6066 4015 L 6075 4060 L 6089 4099 L 6094 4105 L 6098 4116 L 6121 4149 L 6148 4174 L 6170 4190 L 6202 4207 L 6211 4209 L 6219 4214 L 6230 4216 L 6240 4222 L 6255 4224 L 6265 4230 L 6285 4232 L 6296 4238 L 6319 4240 L 6338 4246 L 6373 4248 L 6394 4253 L 6438 4257 L 6564 4258 L 6572 4256 L 6619 4254 L 6646 4248 L 6672 4246 L 6688 4240 L 6711 4238 L 6721 4232 L 6735 4231 L 6749 4224 L 6765 4221 L 6770 4217 L 6782 4214 L 6834 4189 L 6866 4166 L 6895 4134 L 6912 4107 L 6917 4102 L 6920 4089 L 6933 4065 L 6936 4046 L 6942 4031 L 6944 4005 L 6951 3965 L 6951 3569 L 6947 3564 L 6909 3562 L 6792 3563 L 6786 3568 L 6785 3952 L 6782 3963 L 6781 3981 L 6773 4014 L 6767 4032 L 6751 4060 L 6732 4079 L 6727 4081 L 6721 4087 L 6715 4089 L 6709 4095 L 6701 4097 L 6693 4103 L 6682 4105 L 6673 4111 L 6661 4113 L 6648 4119 L 6632 4121 L 6612 4127 L 6561 4130 L 6548 4134 L 6522 4135 L 6448 4134 L 6434 4130 L 6396 4127 L 6377 4121 L 6355 4118 L 6342 4112 L 6333 4111 L 6323 4105 L 6313 4103 L 6307 4098 L 6298 4095 L 6277 4079 L 6265 4067 L 6248 4042 L 6240 4022 L 6231 3984 L 6231 3961 L 6229 3952 L 6230 3569 L 6223 3563 L 6202 3562 L 6068 3563 Z" fill="#000000" fill-rule="evenodd" />
  <path d="M 4051 4235 L 4051 4237 L 4056 4240 L 4236 4239 L 4239 4235 L 4240 4228 L 4246 4222 L 4248 4216 L 4254 4209 L 4256 4202 L 4263 4193 L 4264 4188 L 4270 4181 L 4288 4147 L 4293 4142 L 4301 4128 L 4305 4114 L 4318 4107 L 4663 4105 L 4808 4106 L 4827 4104 L 4838 4115 L 4842 4127 L 4847 4132 L 4849 4139 L 4862 4157 L 4881 4192 L 4894 4211 L 4897 4219 L 4903 4226 L 4905 4236 L 4911 4240 L 5005 4241 L 5088 4240 L 5092 4238 L 5091 4233 L 5081 4222 L 5061 4187 L 5048 4169 L 5038 4149 L 5024 4128 L 5022 4121 L 5016 4114 L 5015 4109 L 5009 4101 L 5005 4091 L 4976 4048 L 4973 4040 L 4968 4034 L 4966 4027 L 4961 4022 L 4957 4013 L 4945 3996 L 4942 3988 L 4929 3970 L 4926 3962 L 4920 3955 L 4917 3947 L 4896 3914 L 4893 3906 L 4889 3902 L 4878 3881 L 4857 3850 L 4854 3842 L 4848 3835 L 4846 3828 L 4833 3810 L 4830 3801 L 4824 3795 L 4821 3786 L 4816 3781 L 4806 3762 L 4792 3742 L 4766 3692 L 4760 3685 L 4749 3663 L 4737 3646 L 4734 3637 L 4698 3579 L 4695 3569 L 4686 3564 L 4455 3562 L 4450 3564 L 4431 3601 L 4417 3621 L 4415 3628 L 4409 3634 L 4399 3654 L 4393 3661 L 4391 3668 L 4385 3674 L 4383 3682 L 4369 3702 L 4366 3710 L 4361 3715 L 4358 3724 L 4345 3742 L 4342 3750 L 4329 3769 L 4319 3789 L 4313 3796 L 4311 3803 L 4289 3836 L 4286 3845 L 4282 3849 L 4278 3859 L 4274 3863 L 4263 3884 L 4257 3891 L 4255 3898 L 4241 3919 L 4238 3927 L 4234 3931 L 4231 3940 L 4218 3955 L 4216 3962 L 4209 3971 L 4206 3980 L 4201 3985 L 4190 4007 L 4185 4012 L 4184 4017 L 4178 4025 L 4174 4035 L 4145 4080 L 4134 4102 L 4129 4107 L 4111 4141 L 4097 4162 L 4094 4170 L 4081 4187 L 4079 4194 L 4074 4199 L 4070 4208 L 4065 4213 L 4063 4221 Z M 4761 3986 L 4757 3991 L 4733 3992 L 4383 3992 L 4379 3989 L 4381 3983 L 4390 3972 L 4393 3963 L 4406 3945 L 4409 3938 L 4414 3933 L 4438 3894 L 4472 3833 L 4510 3777 L 4513 3768 L 4534 3736 L 4553 3701 L 4560 3691 L 4571 3683 L 4575 3684 L 4583 3691 L 4601 3724 L 4623 3757 L 4625 3764 L 4630 3769 L 4633 3777 L 4646 3795 L 4649 3804 L 4654 3809 L 4658 3818 L 4671 3836 L 4673 3843 L 4686 3859 L 4689 3868 L 4703 3886 L 4705 3893 L 4712 3902 L 4713 3907 L 4719 3914 L 4737 3948 L 4742 3953 Z" fill="#000000" fill-rule="evenodd" />
  <path d="M 5223 3564 L 5221 3570 L 5222 4229 L 5220 4233 L 5223 4239 L 5944 4240 L 5950 4237 L 5951 4126 L 5950 4123 L 5945 4120 L 5821 4121 L 5386 4119 L 5383 4114 L 5384 3567 L 5377 3561 L 5241 3563 L 5229 3561 Z" fill="#000000" fill-rule="evenodd" />
  <path d="M 3218 4235 L 3220 4238 L 3225 4240 L 3381 4240 L 3385 4237 L 3384 4027 L 3385 4023 L 3390 4018 L 3797 4018 L 3846 4015 L 3897 4008 L 3940 3997 L 3965 3989 L 3997 3974 L 4012 3961 L 4029 3950 L 4055 3923 L 4062 3913 L 4063 3908 L 4078 3879 L 4081 3862 L 4086 3852 L 4087 3833 L 4091 3817 L 4092 3773 L 4087 3736 L 4081 3717 L 4080 3707 L 4078 3701 L 4072 3693 L 4071 3686 L 4064 3676 L 4062 3669 L 4047 3649 L 4032 3633 L 4003 3614 L 3998 3609 L 3975 3599 L 3966 3593 L 3955 3591 L 3941 3584 L 3866 3569 L 3819 3567 L 3808 3564 L 3735 3563 L 3287 3563 L 3226 3561 L 3222 3566 L 3221 3643 L 3221 4227 Z M 3384 3691 L 3391 3686 L 3789 3686 L 3829 3689 L 3837 3693 L 3861 3697 L 3867 3701 L 3877 3704 L 3898 3720 L 3911 3736 L 3919 3753 L 3923 3775 L 3923 3798 L 3919 3821 L 3911 3840 L 3903 3853 L 3885 3870 L 3868 3879 L 3847 3886 L 3815 3892 L 3797 3893 L 3779 3897 L 3394 3898 L 3389 3896 L 3385 3891 L 3386 3701 Z" fill="#000000" fill-rule="evenodd" />
  </g>
</g></svg>