<?xml version='1.0' encoding='utf-8'?>
<svg xmlns="http://www.w3.org/2000/svg" width="514" height="495" viewBox="0 0 514 495" preserveAspectRatio="xMidYMid meet">
  <g transform="translate(-772 -417)"><path d="M 1247 468 L 1224 449 L 1191 432 L 1168 425 L 1127 419 L 876 419 L 859 421 L 841 426 L 820 436 L 809 444 L 797 456 L 785 474 L 777 496 L 774 514 L 774 695 L 784 680 L 808 655 L 837 634 L 852 626 L 860 620 L 872 607 L 879 595 L 883 581 L 884 539 L 888 525 L 900 511 L 907 507 L 915 505 L 1109 504 L 1131 508 L 1150 518 L 1162 530 L 1167 538 L 1173 559 L 1173 580 L 1168 599 L 1161 611 L 1147 624 L 1130 632 L 1110 636 L 966 636 L 930 640 L 901 647 L 875 657 L 852 670 L 838 680 L 819 698 L 800 723 L 789 744 L 781 766 L 777 782 L 774 806 L 774 910 L 800 908 L 819 903 L 842 891 L 860 875 L 871 860 L 878 845 L 883 826 L 884 807 L 887 792 L 895 770 L 903 758 L 913 747 L 923 739 L 938 731 L 960 724 L 977 722 L 1122 722 L 1150 719 L 1174 714 L 1197 706 L 1221 693 L 1236 682 L 1251 667 L 1265 647 L 1274 629 L 1278 617 L 1284 587 L 1284 550 L 1278 520 L 1266 493 Z" fill="#000000" fill-rule="evenodd" />
</g></svg>